<svg id="Layer_1" data-name="Layer 1" xmlns="http://www.w3.org/2000/svg" viewBox="0 0 341.79 421.42"><defs><style>.cls-1{fill:#5dacbb;}.cls-2{fill:#fff;}.cls-3{fill:#474747;}</style></defs><title>1</title><path class="cls-1" d="M473.28,520.73c-48.76,1.06-81.27,3-81.27,5.14s31.95,4,80,5.11A93.48,93.48,0,0,1,473.28,520.73Z" transform="translate(-392.01 -280.44)"/><path class="cls-1" d="M654.71,520.78A89.34,89.34,0,0,1,656,530.93c46.83-1.08,77.82-2.94,77.82-5.06S702.25,521.85,654.71,520.78Z" transform="translate(-392.01 -280.44)"/><polygon class="cls-1" points="22.92 137.24 175.53 72.54 319.7 137.24 22.92 137.24"/><path class="cls-1" d="M655.76,551.36a92.26,92.26,0,0,1-182.39,0H441.5c20.07,109.71,193.72,103.38,193.72,103.38,48.52-31.64,49.93-103.38,49.93-103.38Z" transform="translate(-392.01 -280.44)"/><path class="cls-1" d="M596.54,682.87s-68.92,3.52-132.22-68.21c0,0,24,45.71,100.25,87.2Z" transform="translate(-392.01 -280.44)"/><path class="cls-1" d="M440.25,414.93v89.31h37a92.25,92.25,0,0,1,172.15,0h37V414.93Z" transform="translate(-392.01 -280.44)"/><rect class="cls-2" x="145.29" y="102.14" width="25.14" height="25.14"/><rect class="cls-2" x="145.29" y="129.04" width="25.14" height="25.14"/><rect class="cls-2" x="172.19" y="102.14" width="25.14" height="25.14"/><rect class="cls-2" x="172.19" y="129.04" width="25.14" height="25.14"/><path class="cls-3" d="M523.35,353s38-46.88,79.94,0C603.29,353,566.49,321.57,523.35,353Z" transform="translate(-392.01 -280.44)"/><path class="cls-3" d="M516.67,333.76s40.09-60,93.3,0C610,333.76,563.79,293.68,516.67,333.76Z" transform="translate(-392.01 -280.44)"/><path class="cls-3" d="M510.23,311.49s52.27-69.86,106.19,0C616.42,311.49,570.47,266.48,510.23,311.49Z" transform="translate(-392.01 -280.44)"/><circle id="small" class="cls-1" cx="171.31" cy="256.97" r="83.81"/><circle id="small-2" data-name="small" class="cls-2" cx="171.31" cy="256.97" r="55.37"/><circle id="small-3" data-name="small" class="cls-3" cx="171.31" cy="256.97" r="29.16"/><circle id="small-4" data-name="small" class="cls-2" cx="179.73" cy="252.3" r="20.73"/><path class="cls-3" d="M586.08,459.59l-4.57,22.46s20.75,5.61,32,26.21L633.2,495.1S616.32,467.32,586.08,459.59Z" transform="translate(-392.01 -280.44)"/><path class="cls-3" d="M485.59,560.4l22.47-4.51s5.56,20.76,26.13,32.06L521,607.61S493.25,590.66,485.59,560.4Z" transform="translate(-392.01 -280.44)"/></svg>